<?xml version="1.0" encoding="UTF-8" standalone="no"?>
<!-- Generator: Adobe Illustrator 16.0.0, SVG Export Plug-In . SVG Version: 6.00 Build 0)  -->

<svg
   xmlns:dc="http://purl.org/dc/elements/1.1/"
   xmlns:cc="http://creativecommons.org/ns#"
   xmlns:rdf="http://www.w3.org/1999/02/22-rdf-syntax-ns#"
   xmlns:svg="http://www.w3.org/2000/svg"
   xmlns="http://www.w3.org/2000/svg"
   xmlns:sodipodi="http://sodipodi.sourceforge.net/DTD/sodipodi-0.dtd"
   xmlns:inkscape="http://www.inkscape.org/namespaces/inkscape"
   version="1.1"
   id="Layer_1"
   x="0px"
   y="0px"
   width="233.91986"
   height="77.003365"
   viewBox="0 0 233.91986 77.003361"
   enable-background="new 0 0 841.89 595.28"
   xml:space="preserve"
   inkscape:version="0.91 r13725"
   sodipodi:docname="logo.svg"><metadata
     id="metadata31"><rdf:RDF><cc:Work
         rdf:about=""><dc:format>image/svg+xml</dc:format><dc:type
           rdf:resource="http://purl.org/dc/dcmitype/StillImage" /><dc:title></dc:title></cc:Work></rdf:RDF></metadata><defs
     id="defs29" /><sodipodi:namedview
     pagecolor="#ffffff"
     bordercolor="#666666"
     borderopacity="1"
     objecttolerance="10"
     gridtolerance="10"
     guidetolerance="10"
     inkscape:pageopacity="0"
     inkscape:pageshadow="2"
     inkscape:window-width="1366"
     inkscape:window-height="718"
     id="namedview27"
     showgrid="false"
     inkscape:zoom="1"
     inkscape:cx="155.34283"
     inkscape:cy="-62.578012"
     inkscape:window-x="0"
     inkscape:window-y="0"
     inkscape:window-maximized="1"
     inkscape:current-layer="Layer_1"
     fit-margin-top="0"
     fit-margin-left="0"
     fit-margin-right="0"
     fit-margin-bottom="0" /><g
     id="g3"
     transform="matrix(0.3176032,-0.08725347,0.08725347,0.3176032,-39.033029,-17.620236)"><path
       d="m 288.123,328.412 c 5.444,4.845 10.062,8.873 14.583,13.006 2.925,2.674 6.141,3.42 10.099,2.893 17.281,-2.306 34.585,-4.452 51.907,-6.422 1.98,-0.225 4.258,0.743 6.177,1.632 16.765,7.761 33.413,15.775 50.233,23.411 9.815,4.455 19.709,8.871 29.903,12.309 6.113,2.062 12.99,1.189 19.021,4.696 5.113,2.973 6.534,4.896 5.092,10.909 -1.549,6.462 -3.188,12.902 -4.716,19.369 -2.193,9.282 -0.695,12.591 7.829,16.808 2.504,1.238 5.194,2.178 7.889,2.941 14.21,4.028 28.439,7.993 42.682,11.907 7.793,2.142 11.01,0.513 14.07,-6.95 1.829,-4.461 3.538,-8.973 5.388,-13.426 2.613,-6.291 3.177,-6.26 9.59,-4.007 6.064,2.131 12.266,4.151 18.576,5.243 10.023,1.734 15.456,-1.375 20.383,-10.416 1.477,-2.709 2.898,-5.449 4.271,-8.037 2.71,0.806 4.855,1.442 7.5,2.229 -0.931,2.807 -1.398,5.49 -2.646,7.741 -3.938,7.107 -3.38,14.468 -1.531,21.857 1.614,6.452 3.543,12.832 5.533,19.182 1.642,5.238 4.701,9.403 9.646,12.188 6.63,3.731 13.665,3.275 20.396,1.41 17.895,-4.96 35.672,-10.358 53.416,-15.838 12.546,-3.875 24.941,-8.233 37.445,-12.249 8.922,-2.866 11.658,-7.779 9.316,-17.111 -1.171,-4.667 -2.434,-9.326 -3.295,-14.054 -2.44,-13.403 -4.642,-26.851 -7.096,-40.251 -0.273,-1.491 -1.253,-3.244 -2.456,-4.104 -3.72,-2.657 -3.516,-5.107 -1.163,-8.784 1.881,-2.94 2.824,-6.65 3.473,-10.149 0.473,-2.551 1.076,-3.463 3.851,-3.904 4.172,-0.664 8.513,-1.798 12.131,-3.868 2.354,-1.348 3.946,-1.94 6.626,-1.346 7.879,1.749 15.941,-3.298 16.328,-10.348 0.922,-16.78 1.48,-33.581 2.212,-50.372 0.159,-3.65 -1.468,-5.833 -4.378,-8.227 -5.9,-4.853 -12.235,-4.869 -18.821,-3.149 -4.381,1.144 -8.419,3.561 -12.772,4.861 -5.577,1.666 -11.278,2.989 -17,4.073 -5.117,0.97 -10.049,1.822 -10.48,7.239 -5.182,-0.802 -9.737,-2.436 -14.058,-1.955 -6.379,0.709 -12.614,2.834 -18.868,4.515 -13.106,3.523 -26.169,7.212 -39.281,10.715 -8.617,2.302 -16.456,1.099 -23.052,-5.495 -1.128,-1.127 -2.823,-1.722 -4.312,-2.448 -8.059,-3.931 -16.175,-7.745 -24.194,-11.753 -11.507,-5.751 -19.328,-2.849 -24.429,8.898 -1.87,4.308 -4.411,8.325 -6.705,12.585 -7.153,-3.978 -13.409,-7.356 -19.567,-10.905 -7.885,-4.544 -7.784,-5.432 -2.831,-12.854 10.261,-15.375 9.321,-15.262 -2.201,-28.403 -8.822,-10.063 -20.94,-15.149 -32.474,-20.994 -2.037,-1.033 -5.732,-0.483 -7.883,0.724 -5.625,3.157 -11.109,6.728 -16.089,10.815 -3.837,3.15 -6.803,2.776 -10.51,0.208 -7.202,-4.992 -14.38,-10.068 -21.918,-14.517 -15.95,-9.415 -32.916,-16.728 -50.641,-22.021 -12.698,-3.793 -25.288,-1.981 -33.23,9.041 -5.214,7.236 -6.969,16.991 -10.12,25.673 -1.16,3.196 -1.883,6.551 -2.863,10.038 -0.974,-0.579 -1.38,-0.678 -1.505,-0.92 -0.454,-0.88 -0.881,-1.784 -1.199,-2.72 -4.814,-14.162 -9.113,-28.54 -17.318,-41.276 -1.156,-1.795 -2.078,-4.025 -3.723,-5.171 -5.845,-4.072 -11.802,-8.035 -18.006,-11.525 -7.698,-4.331 -15.688,-8.014 -18.344,-17.65 -2.071,-7.514 -4.87,-14.826 -6.919,-22.344 -1.908,-6.999 -8.308,-13.8 -15.397,-14.569 -17.571,-1.907 -35.195,-2.326 -51.94,4.33 -5,1.987 -11.25,5.604 -12.965,10.016 -2.938,7.553 -5.735,16.059 -2.435,24.703 1.498,3.925 2.637,7.987 4.204,12.804 -3.136,-1.143 -5.864,-1.457 -7.672,-2.915 -7.257,-5.853 -15.856,-6.778 -24.625,-8.184 -19.277,-3.09 -38.653,-3.683 -58.084,-3.711 -7.741,-0.012 -9.926,2.322 -10.042,10.17 -0.064,4.327 0.097,8.66 0.267,12.985 0.135,3.433 -0.023,6.067 -4.708,6.4 -2.131,0.152 -4.396,2.268 -6.098,3.988 -12.102,12.23 -19.667,27.568 -28.102,42.231 -4.269,7.421 -1.523,18.622 4.853,22.569 13.829,8.562 27.942,16.662 41.897,25.021 5.158,3.09 9.866,2.083 14.321,-1.297 7.863,-5.965 15.633,-12.055 23.486,-18.034 4.054,-3.087 8.203,-6.048 12.435,-9.158 1.456,1.363 2.618,2.295 3.597,3.392 12.61,14.121 25.054,28.395 37.839,42.354 6.919,7.556 13.211,16.955 21.898,21.355 17.085,8.655 35.591,14.545 53.632,21.246 4.119,1.529 8.63,-1.236 10.581,-5.372 1.961,-4.155 3.789,-8.372 6.086,-13.477 z"
       id="path5"
       inkscape:connector-curvature="0"
       style="clip-rule:evenodd;fill:#ffffff;fill-rule:evenodd"
       sodipodi:nodetypes="csccccccccccccccccccccccccccccccccccccccccccccccccccccccccccscccccscccccccccccsccssccccccccccc" /><path
       d="m 288.123,328.412 c -2.297,5.104 -4.125,9.322 -6.086,13.479 -1.951,4.136 -6.462,6.901 -10.581,5.372 -18.042,-6.701 -36.547,-12.591 -53.632,-21.246 -8.687,-4.4 -14.979,-13.8 -21.898,-21.355 -12.786,-13.96 -25.229,-28.233 -37.839,-42.354 -0.979,-1.097 -2.142,-2.028 -3.597,-3.392 -4.232,3.11 -8.381,6.071 -12.435,9.158 -7.853,5.979 -15.623,12.069 -23.486,18.034 -4.456,3.38 -9.163,4.387 -14.321,1.297 -13.955,-8.359 -28.069,-16.46 -41.897,-25.021 -6.375,-3.947 -9.121,-15.148 -4.853,-22.569 8.435,-14.663 16,-30.001 28.102,-42.231 1.703,-1.721 3.967,-3.836 6.098,-3.988 4.685,-0.333 4.843,-2.968 4.708,-6.4 -0.17,-4.325 -0.331,-8.658 -0.267,-12.985 0.115,-7.848 2.301,-10.182 10.042,-10.17 19.431,0.028 38.807,0.621 58.084,3.711 8.769,1.405 17.368,2.331 24.625,8.184 1.808,1.458 4.536,1.772 7.672,2.915 -1.567,-4.816 -2.706,-8.879 -4.204,-12.804 -3.3,-8.645 -0.503,-17.15 2.435,-24.703 1.716,-4.411 7.966,-8.028 12.965,-10.016 16.745,-6.656 34.369,-6.237 51.94,-4.33 7.089,0.77 13.489,7.57 15.397,14.569 2.049,7.518 4.848,14.83 6.919,22.344 2.656,9.637 10.646,13.319 18.344,17.65 6.204,3.49 12.161,7.453 18.006,11.525 1.646,1.146 2.567,3.376 3.723,5.171 8.205,12.736 12.504,27.114 17.318,41.276 0.318,0.936 0.745,1.84 1.199,2.72 0.125,0.242 0.531,0.341 1.505,0.92 0.98,-3.487 1.703,-6.842 2.863,-10.038 3.151,-8.682 4.906,-18.437 10.12,-25.673 7.942,-11.022 20.532,-12.834 33.23,-9.041 17.725,5.294 34.69,12.606 50.641,22.021 7.538,4.448 14.716,9.524 21.918,14.517 3.707,2.568 6.673,2.942 10.51,-0.208 4.979,-4.088 10.464,-7.658 16.089,-10.815 2.15,-1.207 5.846,-1.757 7.883,-0.724 11.533,5.845 23.651,10.932 32.474,20.994 11.522,13.142 12.462,13.028 2.201,28.403 -4.953,7.422 -5.054,8.31 2.831,12.854 6.158,3.549 12.414,6.928 19.567,10.905 2.294,-4.26 4.835,-8.277 6.705,-12.585 5.101,-11.747 12.922,-14.649 24.429,-8.898 8.02,4.008 16.136,7.822 24.194,11.753 1.488,0.727 3.184,1.321 4.312,2.448 6.596,6.594 14.435,7.797 23.052,5.495 13.112,-3.503 26.175,-7.191 39.281,-10.715 6.254,-1.681 12.489,-3.806 18.868,-4.515 4.32,-0.48 8.876,1.153 14.058,1.955 0.432,-5.417 5.363,-6.27 10.48,-7.239 5.722,-1.084 11.423,-2.407 17,-4.073 4.354,-1.301 8.392,-3.718 12.772,-4.861 6.586,-1.72 12.921,-1.703 18.821,3.149 2.91,2.394 4.537,4.576 4.378,8.227 -0.731,16.791 -1.29,33.592 -2.212,50.372 -0.387,7.05 -8.449,12.097 -16.328,10.348 -2.68,-0.595 -4.271,-0.002 -6.626,1.346 -3.618,2.07 -7.959,3.204 -12.131,3.868 -2.774,0.441 -3.378,1.354 -3.851,3.904 -0.648,3.499 -1.592,7.209 -3.473,10.149 -2.353,3.677 -2.557,6.127 1.163,8.784 1.203,0.859 2.183,2.612 2.456,4.104 2.454,13.4 4.655,26.848 7.096,40.251 0.861,4.728 2.124,9.387 3.295,14.054 2.342,9.332 -0.395,14.245 -9.316,17.111 -12.504,4.016 -24.899,8.374 -37.445,12.249 -17.744,5.479 -35.521,10.878 -53.416,15.838 -6.73,1.865 -13.766,2.321 -20.396,-1.41 -4.945,-2.784 -8.005,-6.949 -9.646,-12.188 -1.99,-6.35 -3.919,-12.729 -5.533,-19.182 -1.849,-7.39 -2.407,-14.75 1.531,-21.857 1.248,-2.251 1.716,-4.935 2.646,-7.741 -2.645,-0.786 -4.79,-1.423 -7.5,-2.229 -1.373,2.588 -2.795,5.328 -4.271,8.037 -4.927,9.041 -10.359,12.15 -20.383,10.416 -6.311,-1.092 -12.512,-3.112 -18.576,-5.243 -6.413,-2.253 -6.977,-2.284 -9.59,4.007 -1.85,4.453 -3.559,8.965 -5.388,13.426 -3.061,7.463 -6.277,9.092 -14.07,6.95 -14.242,-3.914 -28.472,-7.879 -42.682,-11.907 -2.694,-0.764 -5.385,-1.703 -7.889,-2.941 -8.524,-4.217 -10.022,-7.525 -7.829,-16.808 1.527,-6.467 3.167,-12.907 4.716,-19.369 1.442,-6.013 0.021,-7.937 -5.092,-10.909 -6.031,-3.507 -12.908,-2.635 -19.021,-4.696 -10.194,-3.438 -20.088,-7.854 -29.903,-12.309 -16.82,-7.636 -33.469,-15.65 -50.233,-23.411 -1.919,-0.889 -4.196,-1.856 -6.177,-1.632 -17.322,1.97 -34.625,4.116 -51.907,6.422 -3.958,0.527 -7.174,-0.219 -10.099,-2.893 -4.521,-4.135 -9.139,-8.163 -14.583,-13.008 z m 328.831,-28.555 c -7.481,-4.463 -13.59,-8.443 -20.008,-11.839 -6.148,-3.253 -12.606,-5.927 -18.953,-8.799 -3.243,-1.468 -5.307,-0.108 -6.854,2.856 -2.386,4.573 -4.923,9.068 -7.455,13.563 -4.017,7.127 -9.201,8.495 -16.2,4.151 -7.908,-4.907 -15.676,-10.043 -23.617,-14.895 -6.381,-3.898 -7.578,-8.306 -3.747,-14.937 1.828,-3.165 3.515,-6.412 5.331,-9.584 2.265,-3.956 1.166,-6.741 -2.557,-9.174 -6.821,-4.458 -13.278,-9.495 -20.233,-13.722 -12.451,-7.567 -7.974,-9.076 -21.953,0.722 -10.946,7.672 -14.028,16.803 -10.449,29.176 1.046,3.617 0.982,7.555 1.428,11.346 -1.644,-0.662 -2.324,-1.551 -2.53,-2.539 -1.326,-6.35 -2.878,-12.677 -3.73,-19.095 -1.331,-10.02 -6.704,-17.064 -14.822,-22.579 -18.396,-12.499 -38.112,-22.371 -58.894,-30.213 -13.588,-5.127 -23.682,-1.784 -30.008,11.202 -4.572,9.386 -7.833,19.402 -11.939,29.026 -3.163,7.413 -5.651,14.687 -0.863,22.356 0.282,0.453 0.036,1.235 0.036,2.145 -0.673,-0.424 -1.25,-0.575 -1.42,-0.925 -4.344,-8.973 -8.523,-18.029 -12.995,-26.938 -3.557,-7.086 -6.848,-14.423 -11.34,-20.896 -9.286,-13.383 -24.124,-20.134 -37.118,-28.938 -9.361,-6.343 -17.177,-13.096 -20.599,-24.511 -2.806,-9.359 -7.025,-18.316 -10.967,-27.299 -0.842,-1.918 -3.157,-4.49 -4.847,-4.53 -14.408,-0.346 -28.444,2.254 -42.241,6.331 -3.652,1.079 -5.43,3.474 -6.302,6.985 -1.79,7.209 -0.875,14.154 3.512,19.983 6.564,8.722 13.39,17.32 20.84,25.284 9.176,9.808 19.246,18.773 28.657,28.37 5.214,5.316 9.874,11.178 14.783,16.793 2.727,-1.979 3.792,-2.813 5.002,-3.248 0.749,-0.27 1.717,0.07 2.587,0.136 -0.142,0.876 0,1.968 -0.474,2.591 -2.685,3.531 -13.019,5.442 -16.503,2.809 -23.316,-17.631 -46.483,-35.459 -69.86,-53.009 -5.648,-4.241 -11.506,-9.925 -17.952,-11.061 -19.796,-3.49 -39.931,-5.05 -59.919,-7.479 -3.632,-0.441 -5.387,1.014 -5.664,4.429 -1.131,13.931 0.616,26.809 12.158,36.679 19.49,16.667 37.242,35.008 53.71,54.725 11.691,13.997 24.654,26.94 37.224,40.189 4.546,4.793 8.896,10.486 14.559,13.362 13.169,6.688 27.077,11.923 40.694,17.726 3.04,1.296 5.631,0.663 7.292,-2.272 2.863,-5.06 5.757,-10.118 8.228,-15.37 0.53,-1.127 -0.185,-3.594 -1.181,-4.571 -18.995,-18.629 -38.123,-37.123 -57.201,-55.668 -0.857,-0.833 -1.504,-1.881 -2.775,-3.499 7.018,-0.201 11.582,3.204 15.902,6.56 5.501,4.274 10.547,9.132 15.793,13.734 17.472,15.329 35.069,30.517 52.357,46.051 7.095,6.375 13.603,13.329 24.306,12.369 9.601,-0.861 19.218,-1.569 28.795,-2.64 3.833,-0.428 5.134,-3.699 3.648,-7.213 -2.108,-4.984 -3.997,-10.061 -5.979,-15.098 0.591,-0.256 1.183,-0.513 1.774,-0.769 0.703,1.21 1.514,2.37 2.089,3.638 2.133,4.695 4.095,9.47 6.295,14.133 2.868,6.08 7.343,10.669 13.499,13.453 10.766,4.868 21.655,9.473 32.335,14.52 9.571,4.523 19.859,5.075 30.069,6.109 2.236,0.227 4.896,0.023 6.816,-1.001 9.934,-5.296 17.345,-13.165 20.102,-24.183 1.714,-6.849 1.648,-14.137 2.475,-21.217 0.299,-2.557 0.87,-5.08 1.317,-7.619 0.542,0.059 1.084,0.117 1.626,0.176 1.61,14.024 2.934,28.092 4.979,42.053 0.783,5.342 -0.23,9.49 -3.193,13.847 -4.215,6.196 -3.887,6.733 2.081,11.111 0.804,0.589 1.521,1.351 2.404,1.768 4.837,2.284 5.859,6.615 5.774,11.264 -0.061,3.3 -0.687,6.612 -1.305,9.873 -1.022,5.392 -2.585,10.706 -3.199,16.134 -0.229,2.019 1.02,5.568 2.527,6.203 12.519,5.271 25.146,10.335 37.97,14.808 6.683,2.331 11.432,-0.435 13.711,-7.182 2.709,-8.023 5.045,-16.182 7.296,-24.35 1.4,-5.08 2.698,-5.592 7.657,-3.285 7.223,3.36 14.481,6.739 21.984,9.373 6.986,2.452 11.658,1.313 13.355,-3.605 3.112,-9.022 5.121,-18.423 7.653,-27.648 0.521,-1.897 1.322,-3.719 1.994,-5.575 1.442,1.589 3.379,2.951 4.234,4.811 2.487,5.409 4.502,11.034 6.777,16.543 2.63,6.368 3.138,6.53 9.146,3.302 0.879,-0.472 1.673,-1.102 2.556,-1.564 15.201,-7.98 30.345,-16.075 45.682,-23.787 2.579,-1.297 6,-0.919 9.032,-1.315 0.114,0.524 0.229,1.049 0.343,1.573 -0.712,0.586 -1.345,1.331 -2.148,1.733 -11.448,5.726 -23,11.252 -34.334,17.193 -3.124,1.638 -6.434,3.973 -8.239,6.871 -4.815,7.729 -9.381,15.714 -12.958,24.063 -1.48,3.454 -0.851,8.242 0.005,12.164 1.197,5.484 3.141,10.886 5.404,16.042 6.021,13.716 1.885,16.475 19.423,9.994 0.154,-0.057 0.332,-0.052 0.488,-0.105 20.819,-7.139 42.097,-12.941 62.133,-22.345 12.058,-5.659 19.946,-14.398 22.125,-27.496 2.198,-13.219 -0.313,-26.223 -3.773,-38.975 -0.224,-0.823 -3.556,-1.108 -5.418,-1.036 -0.769,0.029 -1.594,1.592 -2.191,2.579 -4.554,7.529 -8.985,15.134 -13.659,22.587 -0.664,1.059 -2.429,1.429 -3.683,2.117 -0.367,-1.416 -0.849,-2.816 -1.043,-4.256 -0.075,-0.556 0.493,-1.204 0.782,-1.804 5.534,-11.473 12.657,-21.883 21.198,-31.309 4.377,-4.83 5.763,-10.398 4.587,-16.667 -1.771,-9.441 -3.428,-18.912 -5.542,-28.277 -1.571,-6.958 -3.646,-13.814 -5.779,-20.628 -1.264,-4.039 -4.078,-6.514 -8.654,-5.813 -6.548,1.004 -13.098,2.027 -19.605,3.262 -23.658,4.488 -47.132,9.805 -69.992,17.432 -5.761,1.922 -11.285,4.858 -16.505,8.012 -6.11,3.69 -7.629,9.806 -4.989,16.551 1.092,2.79 2.183,5.581 3.273,8.372 -0.536,0.24 -1.072,0.481 -1.609,0.723 -2.492,-4.961 -5.334,-9.783 -7.38,-14.922 -2.162,-5.43 -0.535,-9.813 4.673,-12.529 6.604,-3.444 13.55,-6.231 20.29,-9.426 2.57,-1.218 4.978,-2.775 8.572,-4.807 z M 100.295,206.041 c -4.659,2.682 -10.384,4.548 -14.006,8.395 -5.547,5.891 -4.996,10.092 0.981,15.417 8.046,7.17 16.56,13.821 24.973,20.57 4.665,3.742 9.409,7.417 14.384,10.719 1.446,0.96 4.627,1.449 5.622,0.573 4.204,-3.702 8.006,-7.893 11.706,-12.122 2.075,-2.373 1.482,-4.967 -0.725,-7.107 -2.503,-2.428 -5.018,-4.848 -7.617,-7.171 -9.757,-8.725 -19.514,-17.452 -29.372,-26.063 -1.437,-1.256 -3.427,-1.88 -5.946,-3.211 z M 65.991,249.33 c 2.285,2.41 3.761,4.528 5.736,5.954 9.529,6.877 19.369,13.333 28.75,20.4 7.08,5.334 9.529,5.411 15.268,-1.447 0.851,-1.017 1.56,-2.15 2.389,-3.188 2.782,-3.477 2.522,-6.099 -1.813,-8.132 -1.904,-0.893 -3.43,-2.574 -5.169,-3.84 -9.645,-7.019 -19.191,-14.182 -29.053,-20.883 -1.919,-1.304 -6.262,-2.008 -7.442,-0.869 -3.313,3.196 -5.558,7.499 -8.666,12.005 z m 672.869,66.9 c 0.09,-0.007 0.18,-0.014 0.27,-0.021 -0.73,-9.949 -1.424,-19.901 -2.201,-29.847 -0.909,-11.642 -0.091,-12.765 -13.615,-9.224 -8.239,2.157 -10.936,7.992 -8.415,16.172 0.488,1.586 0.8,3.226 1.217,4.835 2.46,9.495 4.633,19.081 7.591,28.419 0.773,2.442 3.849,5.601 6.124,5.824 4.892,0.483 9.441,-5.126 9.419,-10.178 -0.01,-1.992 -0.253,-3.985 -0.39,-5.98 z m 21.464,-17.704 c -0.122,-0.008 -0.243,-0.017 -0.364,-0.025 0,-3.653 0.124,-7.312 -0.034,-10.958 -0.165,-3.807 -0.379,-7.64 -1.021,-11.385 -0.299,-1.743 -1.273,-4.258 -2.6,-4.792 -8.044,-3.241 -15.716,2.552 -15.115,11.182 0.495,7.112 1.146,14.215 1.75,21.319 0.562,6.607 0.938,13.243 1.899,19.793 0.213,1.447 2.457,3.567 3.908,3.69 5.783,0.488 9.553,-2.692 10.172,-8.494 0.722,-6.75 0.958,-13.55 1.405,-20.33 z"
       id="path7"
       inkscape:connector-curvature="0"
       style="clip-rule:evenodd;fill-rule:evenodd" /><path
       d="m 616.954,299.857 c -3.594,2.031 -6.002,3.589 -8.572,4.807 -6.74,3.194 -13.686,5.981 -20.29,9.426 -5.208,2.717 -6.835,7.1 -4.673,12.529 2.046,5.139 4.888,9.961 7.38,14.922 0.537,-0.241 1.073,-0.482 1.609,-0.723 -1.091,-2.791 -2.182,-5.582 -3.273,-8.372 -2.64,-6.745 -1.121,-12.86 4.989,-16.551 5.22,-3.153 10.744,-6.09 16.505,-8.012 22.86,-7.627 46.334,-12.943 69.992,-17.432 6.508,-1.234 13.058,-2.258 19.605,-3.262 4.576,-0.701 7.391,1.773 8.654,5.813 2.133,6.813 4.208,13.67 5.779,20.628 2.114,9.365 3.771,18.836 5.542,28.277 1.176,6.269 -0.21,11.837 -4.587,16.667 -8.541,9.426 -15.664,19.836 -21.198,31.309 -0.289,0.6 -0.857,1.248 -0.782,1.804 0.194,1.439 0.676,2.84 1.043,4.256 1.254,-0.688 3.019,-1.059 3.683,-2.117 4.674,-7.453 9.105,-15.058 13.659,-22.587 0.598,-0.987 1.423,-2.55 2.191,-2.579 1.862,-0.072 5.194,0.213 5.418,1.036 3.46,12.752 5.972,25.756 3.773,38.975 -2.179,13.098 -10.067,21.837 -22.125,27.496 -20.036,9.403 -41.313,15.206 -62.133,22.345 -0.156,0.054 -0.334,0.049 -0.488,0.105 -17.538,6.48 -13.401,3.722 -19.423,-9.994 -2.264,-5.156 -4.207,-10.558 -5.404,-16.042 -0.855,-3.922 -1.485,-8.71 -0.005,-12.164 3.577,-8.349 8.143,-16.334 12.958,-24.063 1.806,-2.898 5.115,-5.233 8.239,-6.871 11.334,-5.941 22.886,-11.468 34.334,-17.193 0.804,-0.402 1.437,-1.147 2.148,-1.733 -0.114,-0.524 -0.229,-1.049 -0.343,-1.573 -3.032,0.396 -6.453,0.019 -9.032,1.315 -15.337,7.712 -30.48,15.807 -45.682,23.787 -0.883,0.463 -1.677,1.093 -2.556,1.564 -6.009,3.229 -6.517,3.066 -9.146,-3.302 -2.275,-5.509 -4.29,-11.134 -6.777,-16.543 -0.855,-1.859 -2.792,-3.222 -4.234,-4.811 -0.672,1.856 -1.473,3.678 -1.994,5.575 -2.532,9.226 -4.541,18.626 -7.653,27.648 -1.697,4.919 -6.369,6.058 -13.355,3.605 -7.503,-2.634 -14.762,-6.013 -21.984,-9.373 -4.959,-2.307 -6.257,-1.795 -7.657,3.285 -2.251,8.168 -4.587,16.326 -7.296,24.35 -2.279,6.747 -7.028,9.513 -13.711,7.182 -12.823,-4.473 -25.451,-9.536 -37.97,-14.808 -1.508,-0.635 -2.756,-4.185 -2.527,-6.203 0.614,-5.428 2.177,-10.742 3.199,-16.134 0.618,-3.261 1.244,-6.573 1.305,-9.873 0.085,-4.648 -0.938,-8.979 -5.774,-11.264 -0.883,-0.417 -1.601,-1.179 -2.404,-1.768 -5.968,-4.378 -6.296,-4.915 -2.081,-11.111 2.963,-4.356 3.977,-8.505 3.193,-13.847 -2.046,-13.961 -3.369,-28.028 -4.979,-42.053 -0.542,-0.059 -1.084,-0.117 -1.626,-0.176 -0.447,2.539 -1.019,5.063 -1.317,7.619 -0.826,7.08 -0.761,14.368 -2.475,21.217 -2.757,11.018 -10.168,18.887 -20.102,24.183 -1.921,1.024 -4.58,1.228 -6.816,1.001 -10.21,-1.034 -20.498,-1.586 -30.069,-6.109 -10.68,-5.047 -21.569,-9.651 -32.335,-14.52 -6.156,-2.784 -10.631,-7.373 -13.499,-13.453 -2.2,-4.663 -4.162,-9.438 -6.295,-14.133 -0.576,-1.268 -1.386,-2.428 -2.089,-3.638 -0.591,0.256 -1.183,0.513 -1.774,0.769 1.982,5.037 3.871,10.113 5.979,15.098 1.486,3.514 0.186,6.785 -3.648,7.213 -9.577,1.07 -19.195,1.778 -28.795,2.64 -10.703,0.96 -17.211,-5.994 -24.306,-12.369 -17.288,-15.534 -34.885,-30.722 -52.357,-46.051 -5.246,-4.603 -10.292,-9.46 -15.793,-13.734 -4.32,-3.355 -8.884,-6.761 -15.902,-6.56 1.271,1.618 1.918,2.666 2.775,3.499 19.078,18.545 38.206,37.039 57.201,55.668 0.997,0.978 1.711,3.444 1.181,4.571 -2.47,5.252 -5.364,10.311 -8.228,15.37 -1.661,2.936 -4.252,3.568 -7.292,2.272 -13.617,-5.803 -27.525,-11.037 -40.694,-17.726 -5.662,-2.876 -10.012,-8.569 -14.559,-13.362 -12.569,-13.249 -25.533,-26.192 -37.224,-40.189 -16.469,-19.717 -34.221,-38.058 -53.71,-54.725 -11.542,-9.87 -13.289,-22.748 -12.158,-36.679 0.277,-3.415 2.032,-4.87 5.664,-4.429 19.989,2.429 40.123,3.988 59.919,7.479 6.446,1.136 12.304,6.819 17.952,11.061 23.377,17.55 46.543,35.378 69.86,53.009 3.484,2.634 13.819,0.723 16.503,-2.809 0.474,-0.623 0.332,-1.715 0.474,-2.591 -0.87,-0.065 -1.838,-0.405 -2.587,-0.136 -1.209,0.435 -2.275,1.27 -5.002,3.248 -4.91,-5.615 -9.569,-11.477 -14.783,-16.793 -9.412,-9.597 -19.481,-18.563 -28.657,-28.37 -7.45,-7.964 -14.275,-16.563 -20.84,-25.284 -4.387,-5.829 -5.302,-12.774 -3.512,-19.983 0.872,-3.512 2.65,-5.906 6.302,-6.985 13.797,-4.077 27.833,-6.677 42.241,-6.331 1.69,0.04 4.005,2.612 4.847,4.53 3.941,8.982 8.161,17.939 10.967,27.299 3.421,11.415 11.238,18.168 20.599,24.511 12.994,8.805 27.832,15.556 37.118,28.938 4.492,6.474 7.783,13.811 11.34,20.896 4.471,8.909 8.65,17.966 12.995,26.938 0.169,0.35 0.747,0.501 1.42,0.925 0,-0.909 0.246,-1.691 -0.036,-2.145 -4.789,-7.67 -2.3,-14.943 0.863,-22.356 4.106,-9.624 7.367,-19.641 11.939,-29.026 6.327,-12.986 16.42,-16.329 30.008,-11.202 20.781,7.842 40.497,17.714 58.894,30.213 8.118,5.515 13.491,12.56 14.822,22.579 0.853,6.418 2.404,12.745 3.73,19.095 0.206,0.988 0.887,1.877 2.53,2.539 -0.445,-3.791 -0.382,-7.729 -1.428,-11.346 -3.579,-12.373 -0.497,-21.504 10.449,-29.176 13.979,-9.798 9.502,-8.289 21.953,-0.722 6.955,4.227 13.412,9.264 20.233,13.722 3.723,2.433 4.821,5.218 2.557,9.174 -1.816,3.172 -3.503,6.419 -5.331,9.584 -3.831,6.631 -2.634,11.038 3.747,14.937 7.941,4.852 15.709,9.987 23.617,14.895 6.999,4.344 12.184,2.976 16.2,-4.151 2.532,-4.495 5.069,-8.99 7.455,-13.563 1.547,-2.965 3.61,-4.324 6.854,-2.856 6.347,2.872 12.805,5.546 18.953,8.799 6.418,3.396 12.527,7.377 20.008,11.839 z m 51.188,24.085 c 0.67,-1.393 2.42,-3.363 1.999,-4.591 -0.489,-1.426 -2.819,-2.99 -4.457,-3.117 -6.411,-0.496 -12.881,-0.762 -19.294,-0.438 -2.292,0.116 -4.567,2.026 -6.634,3.436 -0.291,0.199 0.724,3.244 1.018,3.225 2.635,-0.175 5.465,-0.25 7.813,-1.302 4.095,-1.834 4.936,-2.11 8.591,0.432 -1.992,0.415 -3.657,0.763 -5.323,1.109 -0.206,0.482 -0.413,0.966 -0.62,1.448 1.866,1.17 3.731,2.341 5.79,3.632 -3.952,1.924 -6.88,-0.229 -10.248,-1.477 -2.094,-0.774 -4.973,0.574 -7.5,0.97 1.618,1.728 3.098,4.761 4.88,4.95 6.873,0.734 13.855,0.832 20.771,0.544 1.877,-0.078 4.375,-1.994 5.236,-3.735 0.559,-1.134 -1.32,-3.476 -2.022,-5.086 z m -231.338,-13.43 c -2.864,-2.536 -5.109,-5.333 -8.011,-6.948 -11.079,-6.169 -19.759,-13.875 -20.344,-27.682 -0.041,-0.97 -0.304,-2.069 -0.845,-2.843 -0.644,-0.921 -1.698,-1.554 -3.049,-2.721 0.23,9.95 5.319,28.239 10.195,37.504 5.045,9.583 12.83,10.905 22.054,2.69 z m 262.25,5.1 c -9.313,-1.064 -26.011,5.932 -26.624,11.697 4.806,0 9.537,0 14.269,0 -5.083,2.428 -5.083,2.428 -4.669,5.731 7.57,0 15.155,0 22.564,0 2.676,-6.017 -4.714,-2.184 -4.941,-5.257 1.657,-2.103 6.822,1.145 6.495,-4.351 -2.412,-0.205 -4.348,-0.37 -6.581,-0.56 -0.174,-2.46 -0.335,-4.738 -0.513,-7.26 z m -79.509,5.959 c 0,2.591 0,4.791 0,6.93 -5.563,0.862 -5.563,0.862 -4.802,4.414 7.578,0 15.121,0 22.523,0 1.656,-5.65 -3.703,-2.833 -5.475,-5.284 0,-3.716 0,-7.963 0,-12.601 -5.896,0.829 -11.325,1.491 -16.69,2.496 -0.584,0.109 -0.797,2.201 -1.268,3.638 2.274,0.162 3.747,0.267 5.712,0.407 z"
       id="path9"
       inkscape:connector-curvature="0"
       style="clip-rule:evenodd;fill:#ffffff;fill-rule:evenodd" /><path
       d="m 100.295,206.041 c 2.519,1.331 4.508,1.955 5.946,3.211 9.858,8.61 19.615,17.338 29.372,26.063 2.599,2.323 5.114,4.743 7.617,7.171 2.207,2.141 2.799,4.734 0.725,7.107 -3.7,4.229 -7.502,8.42 -11.706,12.122 -0.994,0.876 -4.175,0.387 -5.622,-0.573 -4.976,-3.302 -9.72,-6.977 -14.384,-10.719 -8.413,-6.749 -16.926,-13.4 -24.973,-20.57 -5.977,-5.325 -6.528,-9.526 -0.981,-15.417 3.622,-3.847 9.347,-5.713 14.006,-8.395 z"
       id="path11"
       inkscape:connector-curvature="0"
       style="clip-rule:evenodd;fill:#ffffff;fill-rule:evenodd" /><path
       d="m 65.991,249.33 c 3.108,-4.506 5.353,-8.809 8.667,-12.004 1.18,-1.139 5.522,-0.435 7.442,0.869 9.861,6.701 19.408,13.864 29.053,20.883 1.739,1.266 3.265,2.947 5.169,3.84 4.335,2.033 4.595,4.655 1.813,8.132 -0.83,1.037 -1.539,2.171 -2.389,3.188 -5.739,6.858 -8.188,6.781 -15.268,1.447 -9.381,-7.067 -19.221,-13.523 -28.75,-20.4 -1.976,-1.427 -3.452,-3.545 -5.737,-5.955 z"
       id="path13"
       inkscape:connector-curvature="0"
       style="clip-rule:evenodd;fill:#ffffff;fill-rule:evenodd" /><path
       d="m 738.86,316.23 c 0.137,1.994 0.38,3.987 0.389,5.981 0.022,5.052 -4.527,10.661 -9.419,10.178 -2.275,-0.224 -5.351,-3.382 -6.124,-5.824 -2.958,-9.338 -5.131,-18.924 -7.591,-28.419 -0.417,-1.609 -0.729,-3.249 -1.217,-4.835 -2.521,-8.18 0.176,-14.015 8.415,-16.172 13.524,-3.541 12.706,-2.418 13.615,9.224 0.777,9.945 1.471,19.897 2.201,29.847 -0.089,0.007 -0.179,0.014 -0.269,0.02 z"
       id="path15"
       inkscape:connector-curvature="0"
       style="clip-rule:evenodd;fill:#ffffff;fill-rule:evenodd" /><path
       d="m 760.324,298.526 c -0.447,6.779 -0.684,13.58 -1.404,20.33 -0.619,5.802 -4.389,8.982 -10.172,8.494 -1.451,-0.123 -3.695,-2.243 -3.908,-3.69 -0.961,-6.55 -1.338,-13.186 -1.899,-19.793 -0.604,-7.104 -1.255,-14.207 -1.75,-21.319 -0.601,-8.63 7.071,-14.423 15.115,-11.182 1.326,0.534 2.301,3.049 2.6,4.792 0.642,3.745 0.855,7.578 1.021,11.385 0.158,3.646 0.034,7.305 0.034,10.958 0.12,0.009 0.241,0.018 0.363,0.025 z"
       id="path17"
       inkscape:connector-curvature="0"
       style="clip-rule:evenodd;fill:#ffffff;fill-rule:evenodd" /><path
       d="m 668.142,323.942 c 0.702,1.609 2.581,3.951 2.021,5.086 -0.861,1.741 -3.359,3.657 -5.236,3.735 -6.915,0.288 -13.897,0.19 -20.771,-0.544 -1.782,-0.189 -3.262,-3.223 -4.88,-4.95 2.527,-0.396 5.406,-1.744 7.5,-0.97 3.368,1.247 6.296,3.4 10.248,1.477 -2.059,-1.291 -3.924,-2.462 -5.79,-3.632 0.207,-0.482 0.414,-0.966 0.62,-1.448 1.666,-0.347 3.331,-0.694 5.323,-1.109 -3.655,-2.542 -4.496,-2.266 -8.591,-0.432 -2.348,1.052 -5.178,1.127 -7.813,1.302 -0.294,0.02 -1.309,-3.025 -1.018,-3.225 2.066,-1.409 4.342,-3.319 6.634,-3.436 6.413,-0.324 12.883,-0.059 19.294,0.438 1.638,0.127 3.968,1.691 4.457,3.117 0.422,1.228 -1.328,3.199 -1.998,4.591 z"
       id="path19"
       inkscape:connector-curvature="0"
       style="clip-rule:evenodd;fill-rule:evenodd" /><path
       d="m 436.804,310.512 c -9.224,8.215 -17.009,6.894 -22.053,-2.689 -4.876,-9.265 -9.965,-27.554 -10.195,-37.504 1.351,1.167 2.405,1.8 3.049,2.721 0.541,0.773 0.804,1.873 0.845,2.843 0.585,13.807 9.265,21.513 20.344,27.682 2.9,1.614 5.145,4.411 8.01,6.947 z"
       id="path21"
       inkscape:connector-curvature="0"
       style="clip-rule:evenodd;fill-rule:evenodd" /><path
       d="m 699.054,315.612 c 0.179,2.521 0.339,4.8 0.513,7.262 2.233,0.189 4.169,0.354 6.581,0.56 0.327,5.495 -4.838,2.248 -6.495,4.351 0.228,3.073 7.617,-0.76 4.941,5.257 -7.409,0 -14.994,0 -22.564,0 -0.414,-3.304 -0.414,-3.304 4.669,-5.731 -4.731,0 -9.463,0 -14.269,0 0.613,-5.767 17.311,-12.763 26.624,-11.699 z"
       id="path23"
       inkscape:connector-curvature="0"
       style="clip-rule:evenodd;fill-rule:evenodd" /><path
       d="m 619.545,321.571 c -1.965,-0.141 -3.438,-0.245 -5.711,-0.407 0.471,-1.437 0.684,-3.528 1.268,-3.638 5.365,-1.005 10.795,-1.667 16.69,-2.496 0,4.638 0,8.885 0,12.601 1.771,2.451 7.131,-0.366 5.475,5.284 -7.402,0 -14.945,0 -22.523,0 -0.762,-3.552 -0.762,-3.552 4.802,-4.414 -0.001,-2.139 -0.001,-4.339 -0.001,-6.93 z"
       id="path25"
       inkscape:connector-curvature="0"
       style="clip-rule:evenodd;fill-rule:evenodd" /></g></svg>