<svg xmlns:svg="http://www.w3.org/2000/svg" xmlns="http://www.w3.org/2000/svg" width="35.5" height="36.9" viewBox="0 0 125.7 130.9" version="1.1"><g transform="translate(-285.72416,-372.62187)"><path d="m286.6 438.3c0 0-1.6 4.7-0.4 7.2 0 0 14.7 9.7 16.1 19.6 2.5 8.6-0.5 22 2.3 29 1.5 4 19.2 2.9 19.2 2.9 4.8 0.8 6.9 5 12.9 6.1 6 1.1 14.7 0 24-0.4 9.2-4.2 23-8.9 30.4-7.5 1.4 0.3 3.6-1.8 3.6-3.2 0-8.7 0-26.5 0-26.5 1.3-10.2 15.5-23 15.5-23 2.1-2.9 0.8-7 0.8-7-1.6-1.4-30.6-2.4-30.6-2.4l-2.4-2.5c-0.4-1.4-17.1-2.4-17.1-2.4 0 0-2.9-9.5-4.9-9.6 0 0-0.7-1.7-0.1-2.1 4.9-2.8 3.4-4.5 4.1-5.8 0.5-0.8 0.8-0.4 1.2-0.1 1 0.9 2.5 3.1 3.7 2.3 2.1-1.4-0.5-6.2 0.8-7.6 0.6-0.7 1.8-1.1 2.6-0.8 1.2 0.4 0 2.7 2.1 3.1 0.6 0.1 1.3-0.1 1.8-0.6 0.5-0.5 0.2-1.7 0.8-2.1 0.5-0.3 1.4-0.3 1.9 0.1 0.5 0.4 0.1 1.5 0.5 2 0.4 0.4 1.3 0.2 1.6 0.6 0.5 0.7-0.7 2 0 2.7 0.5 0.4 1.4 0.3 1.8-0.1 0.6-0.5 0.3-1.4 0.3-2.2 0-0.4-0.1-0.7-0.3-1.1-1-2.1-5.9-5.4-4.2-5.5 1.3 0 3.6 3.6 4.6 3.7 0.9 0.1 1.3-1.2 1.7-1.2 2-0.2 4.4 1.7 3.2-1.8-0.2-0.7-1.8 0.2-2.1-0.5-0.9-2.5-0.9-5.3-2.1-7.6-0.5-1-2.1-1.1-2.3-2.6-0.1-0.8 0.7-1.7 0.4-2.5-0.3-0.9-1.4-1.5-2.3-1.9-1.4-0.6-2.8-1.8-4.5-0.8-0.8 0.5-1 1.8-0.7 2.7 0.6 1.9 4.9 1.8 4.6 3.8-0.2 1.5-2.6 3-3.8 2.2-0.6-0.4 0.9-1.5 0.3-1.9-0.7-0.6-1.7 0.9-3.1 0.1-0.4-0.2-0.9-1.1-0.9-1.1 0 0-1.3-3-3.4-4.7-1.5-1.1-4.7-0.5-5-1.9-0.2-1.2 1.9-1.9 1.9-3.3-0.1-1.5 0-3.1-0.5-4.6-0.7-1.8-2.4-4.9-3.4-4.8-4.6 0.7-7.5 5.8-7.9 9.2-0.4 3.7 4.4 6.2 3 8.1-1.2 1.6-3.1-0.7-6-0.2-2.4 0.4-3.6 3-4.6 1.5-1.6-2.3 4.8-6.3 2.7-7.2-1.2-0.5-2.1 1.7-3.4 1.9-0.5 0.1-1.4-0.3-1.4-0.3-2.6-5.6-6.1-6.8-8.1 0.3-0.4 1.2-5-0.2-6.3 0-1 0.2-1.1 1.7-2.1 1.8-1 0-1.4-0.7-2.4-0.3-0.7 0.3-0.6 0.7-0.6 1.4 0 1.5 1.8 2.3 2.3 3.7 0.3 0.8-0.2 1.5 0.4 2.1 0.6 0.6 1.6 0.3 2.2 0.7 0.7 0.5 1.6 2.1 1.6 2.1 0 0-1.2 0.5-1.4 1-0.1 0.3-0.1 0.8 0.2 1.1 0.4 0.4 1.8 0.5 1.8 0.5 0 0-7 5.4-6.7 6.7 0.3 1.8 7.7-2.4 7.7-2.4 0 2.1-0.6 3.4 1.2 6.4 2.9 0.2 3.9-6.2 4.8-5.9 0.1 2.2 7.5 4.2 7.5 4.2 0 0-1.4 7 0.9 8.2l-0.5 4.1-2.5 3.2c-3.8-1.6-5.1 2.9-5.1 2.9l-4.8 1.8-4.9 3.9z" fill="#a6d37e"/></g></svg>