<?xml version="1.0" encoding="UTF-8" standalone="no"?>
<!-- Created with Inkscape (http://www.inkscape.org/) -->

<svg
   xmlns:dc="http://purl.org/dc/elements/1.1/"
   xmlns:cc="http://creativecommons.org/ns#"
   xmlns:rdf="http://www.w3.org/1999/02/22-rdf-syntax-ns#"
   xmlns:svg="http://www.w3.org/2000/svg"
   xmlns="http://www.w3.org/2000/svg"
   xmlns:sodipodi="http://sodipodi.sourceforge.net/DTD/sodipodi-0.dtd"
   xmlns:inkscape="http://www.inkscape.org/namespaces/inkscape"
   width="35.473785mm"
   height="36.945499mm"
   viewBox="0 0 125.69452 130.90925"
   id="svg5677"
   version="1.1"
   inkscape:version="0.91 r13725"
   sodipodi:docname="logo.svg">
  <defs
     id="defs5679" />
  <sodipodi:namedview
     id="base"
     pagecolor="#ffffff"
     bordercolor="#666666"
     borderopacity="1.0"
     inkscape:pageopacity="0.0"
     inkscape:pageshadow="2"
     inkscape:zoom="4"
     inkscape:cx="38.406624"
     inkscape:cy="76.323812"
     inkscape:document-units="px"
     inkscape:current-layer="layer1"
     showgrid="false"
     fit-margin-top="0"
     fit-margin-left="0"
     fit-margin-right="0"
     fit-margin-bottom="0"
     inkscape:window-width="1366"
     inkscape:window-height="744"
     inkscape:window-x="0"
     inkscape:window-y="24"
     inkscape:window-maximized="1" />
  <metadata
     id="metadata5682">
    <rdf:RDF>
      <cc:Work
         rdf:about="">
        <dc:format>image/svg+xml</dc:format>
        <dc:type
           rdf:resource="http://purl.org/dc/dcmitype/StillImage" />
        <dc:title></dc:title>
      </cc:Work>
    </rdf:RDF>
  </metadata>
  <g
     inkscape:label="Layer 1"
     inkscape:groupmode="layer"
     id="layer1"
     transform="translate(-285.72416,-372.62187)">
    <path
       style="fill:#a6d37e;fill-opacity:1;fill-rule:evenodd;stroke:none"
       d="m 286.58921,438.30894 c 0,0 -1.64645,4.69064 -0.39645,7.19064 0,0 14.73402,9.74457 16.08839,19.57322 2.50341,8.5912 -0.5,21.99999 2.25,28.99999 1.5,4 19.16161,2.92678 19.16161,2.92678 4.75,0.75 6.91853,4.96521 12.92678,6.05806 6.00042,1.09142 14.66688,0.007 24.01516,-0.38128 9.17151,-4.18869 22.96164,-8.86402 30.43935,-7.5 1.39126,0.25378 3.6152,-1.76257 3.61872,-3.17678 0.0216,-8.69127 0,-26.49999 0,-26.49999 1.25,-10.25 15.52643,-23.02513 15.52643,-23.02513 2.12132,-2.87262 0.78293,-6.9597 0.78293,-6.9597 -1.59099,-1.37002 -30.64906,-2.39645 -30.64906,-2.39645 l -2.42548,-2.51647 c -0.35355,-1.41421 -17.07452,-2.38128 -17.07452,-2.38128 0,0 -2.90641,-9.54159 -4.85095,-9.58579 0,0 -0.71293,-1.72889 -0.11125,-2.06591 4.9109,-2.75078 3.38225,-4.45237 4.12733,-5.81077 0.4504,-0.82115 0.84066,-0.44773 1.18741,-0.11566 0.9548,0.91435 2.49731,3.05971 3.67465,2.29466 2.09945,-1.36425 -0.46665,-6.2379 0.83036,-7.6343 0.62775,-0.67585 1.76896,-1.14254 2.63839,-0.83445 1.17641,0.41687 0.0222,2.70889 2.0625,3.125 0.61742,0.12592 1.34041,-0.14854 1.799,-0.5807 0.54847,-0.51687 0.18965,-1.69487 0.82084,-2.10666 0.52709,-0.34388 1.39589,-0.31305 1.88628,0.0814 0.53231,0.42817 0.0705,1.47112 0.52513,1.981 0.38319,0.42975 1.28227,0.15571 1.60822,0.63034 0.50255,0.73177 -0.67962,2.01652 0.0168,2.6631 0.45113,0.41881 1.3805,0.29954 1.84365,-0.10594 0.62252,-0.54501 0.30271,-1.39142 0.3125,-2.21875 0.005,-0.42146 -0.0946,-0.70834 -0.27183,-1.09077 -0.9656,-2.0839 -5.92225,-5.44432 -4.19672,-5.45076 1.32138,-0.005 3.60979,3.60243 4.59157,3.66591 0.85644,0.0554 1.26737,-1.17289 1.72073,-1.21813 1.97415,-0.19701 4.36006,1.72128 3.22985,-1.84635 -0.21772,-0.68728 -1.83559,0.19762 -2.10485,-0.4974 -0.94992,-2.45197 -0.89465,-5.27853 -2.14645,-7.59099 -0.54715,-1.01076 -2.0729,-1.07638 -2.26516,-2.59965 -0.10659,-0.84449 0.73747,-1.71281 0.44929,-2.51374 -0.33802,-0.93947 -1.38151,-1.5115 -2.28479,-1.93685 -1.37565,-0.64779 -2.83904,-1.78444 -4.49033,-0.80331 -0.79392,0.47171 -0.98719,1.80022 -0.7045,2.67937 0.61363,1.9084 4.87697,1.84523 4.63253,3.8349 -0.18332,1.49223 -2.58059,3.02629 -3.84623,2.2148 -0.58375,-0.37429 0.87713,-1.50443 0.34366,-1.94744 -0.68038,-0.56501 -1.67429,0.92369 -3.12998,0.13258 -0.41587,-0.22601 -0.89515,-1.10225 -0.89515,-1.10225 0,0 -1.25523,-2.99694 -3.42773,-4.66544 -1.47721,-1.1345 -4.7305,-0.54801 -4.95875,-1.90909 -0.2096,-1.24985 1.94843,-1.88834 1.90034,-3.29289 -0.051,-1.49083 0.0273,-3.12807 -0.51386,-4.55806 -0.69399,-1.8337 -2.35703,-4.93215 -3.37603,-4.81655 -4.60844,0.66108 -7.51703,5.75362 -7.87079,9.15095 -0.3839,3.6867 4.39586,6.1831 2.95133,8.07461 -1.22223,1.60043 -3.13674,-0.73449 -5.99069,-0.24976 -2.41913,0.41088 -3.59503,2.95914 -4.58123,1.50106 -1.56448,-2.31307 4.75452,-6.2696 2.6577,-7.23483 -1.18264,-0.54441 -2.13159,1.68581 -3.41715,1.89162 -0.4804,0.0769 -1.4338,-0.2729 -1.4338,-0.2729 -2.56326,-5.61266 -6.14144,-6.7931 -8.14384,0.29029 -0.3524,1.24657 -4.97747,-0.23171 -6.25086,0.0214 -1.01795,0.20236 -1.06754,1.73379 -2.1027,1.76284 -0.96577,0.0271 -1.44726,-0.66585 -2.35017,-0.32206 -0.67355,0.25645 -0.60558,0.66682 -0.60516,1.38754 9.1e-4,1.54992 1.82808,2.30588 2.27158,3.67645 0.26427,0.81671 -0.18897,1.50907 0.40736,2.12652 0.56133,0.58121 1.56714,0.25394 2.18916,0.70142 0.72024,0.51813 1.57593,2.14506 1.57593,2.14506 0,0 -1.15586,0.45062 -1.36589,0.96754 -0.13987,0.34423 -0.0506,0.82409 0.20242,1.09615 0.41304,0.44405 1.76057,0.45882 1.76057,0.45882 0,0 -6.95582,5.37607 -6.69065,6.7019 0.30936,1.76777 7.67678,-2.44194 7.67678,-2.44194 -0.0461,2.12976 -0.64278,3.40836 1.23223,6.35355 2.91681,0.22097 3.92808,-6.2097 4.81196,-5.85615 0.0884,2.16551 7.5442,4.23743 7.5442,4.23743 0,0 -1.40579,7.02743 0.90671,8.21493 l -0.45313,4.13281 -2.46875,3.20312 c -3.8125,-1.625 -5.09375,2.89063 -5.09375,2.89063 l -4.78125,1.82812 -4.875,3.875 z"
       id="path4201"
       inkscape:connector-curvature="0"
       sodipodi:nodetypes="cccccscsscccccccssssssssssssssssssssssssssssssscsssacsssssscsssssssscssccccccccccccc" />
  </g>
</svg>
