<?xml version="1.0" encoding="utf-8"?>
<!-- Generator: Adobe Illustrator 16.0.0, SVG Export Plug-In . SVG Version: 6.00 Build 0)  -->
<!DOCTYPE svg PUBLIC "-//W3C//DTD SVG 1.1//EN" "http://www.w3.org/Graphics/SVG/1.1/DTD/svg11.dtd">
<svg version="1.1" id="Layer_1" xmlns="http://www.w3.org/2000/svg" xmlns:xlink="http://www.w3.org/1999/xlink" x="0px" y="0px"
	 width="841.89px" height="595.28px" viewBox="0 0 841.89 595.28" enable-background="new 0 0 841.89 595.28" xml:space="preserve">
<g>
	<path fill-rule="evenodd" clip-rule="evenodd" fill="#FFFFFF" d="M-58,610.28c0-208,0-416,0-624c320,0,640,0,960,0
		c0,208,0,416,0,624C582,610.28,262,610.28-58,610.28z M288.123,328.412c5.444,4.845,10.062,8.873,14.583,13.006
		c2.925,2.674,6.141,3.42,10.099,2.893c17.281-2.306,34.585-4.452,51.907-6.422c1.98-0.225,4.258,0.743,6.177,1.632
		c16.765,7.761,33.413,15.775,50.233,23.411c9.815,4.455,19.709,8.871,29.903,12.309c6.113,2.062,12.99,1.189,19.021,4.696
		c5.113,2.973,6.534,4.896,5.092,10.909c-1.549,6.462-3.188,12.902-4.716,19.369c-2.193,9.282-0.695,12.591,7.829,16.808
		c2.504,1.238,5.194,2.178,7.889,2.941c14.21,4.028,28.439,7.993,42.682,11.907c7.793,2.142,11.01,0.513,14.07-6.95
		c1.829-4.461,3.538-8.973,5.388-13.426c2.613-6.291,3.177-6.26,9.59-4.007c6.064,2.131,12.266,4.151,18.576,5.243
		c10.023,1.734,15.456-1.375,20.383-10.416c1.477-2.709,2.898-5.449,4.271-8.037c2.71,0.806,4.855,1.442,7.5,2.229
		c-0.931,2.807-1.398,5.49-2.646,7.741c-3.938,7.107-3.38,14.468-1.531,21.857c1.614,6.452,3.543,12.832,5.533,19.182
		c1.642,5.238,4.701,9.403,9.646,12.188c6.63,3.731,13.665,3.275,20.396,1.41c17.895-4.96,35.672-10.358,53.416-15.838
		c12.546-3.875,24.941-8.233,37.445-12.249c8.922-2.866,11.658-7.779,9.316-17.111c-1.171-4.667-2.434-9.326-3.295-14.054
		c-2.44-13.403-4.642-26.851-7.096-40.251c-0.273-1.491-1.253-3.244-2.456-4.104c-3.72-2.657-3.516-5.107-1.163-8.784
		c1.881-2.94,2.824-6.65,3.473-10.149c0.473-2.551,1.076-3.463,3.851-3.904c4.172-0.664,8.513-1.798,12.131-3.868
		c2.354-1.348,3.946-1.94,6.626-1.346c7.879,1.749,15.941-3.298,16.328-10.348c0.922-16.78,1.48-33.581,2.212-50.372
		c0.159-3.65-1.468-5.833-4.378-8.227c-5.9-4.853-12.235-4.869-18.821-3.149c-4.381,1.144-8.419,3.561-12.772,4.861
		c-5.577,1.666-11.278,2.989-17,4.073c-5.117,0.97-10.049,1.822-10.48,7.239c-5.182-0.802-9.737-2.436-14.058-1.955
		c-6.379,0.709-12.614,2.834-18.868,4.515c-13.106,3.523-26.169,7.212-39.281,10.715c-8.617,2.302-16.456,1.099-23.052-5.495
		c-1.128-1.127-2.823-1.722-4.312-2.448c-8.059-3.931-16.175-7.745-24.194-11.753c-11.507-5.751-19.328-2.849-24.429,8.898
		c-1.87,4.308-4.411,8.325-6.705,12.585c-7.153-3.978-13.409-7.356-19.567-10.905c-7.885-4.544-7.784-5.432-2.831-12.854
		c10.261-15.375,9.321-15.262-2.201-28.403c-8.822-10.063-20.94-15.149-32.474-20.994c-2.037-1.033-5.732-0.483-7.883,0.724
		c-5.625,3.157-11.109,6.728-16.089,10.815c-3.837,3.15-6.803,2.776-10.51,0.208c-7.202-4.992-14.38-10.068-21.918-14.517
		c-15.95-9.415-32.916-16.728-50.641-22.021c-12.698-3.793-25.288-1.981-33.23,9.041c-5.214,7.236-6.969,16.991-10.12,25.673
		c-1.16,3.196-1.883,6.551-2.863,10.038c-0.974-0.579-1.38-0.678-1.505-0.92c-0.454-0.88-0.881-1.784-1.199-2.72
		c-4.814-14.162-9.113-28.54-17.318-41.276c-1.156-1.795-2.078-4.025-3.723-5.171c-5.845-4.072-11.802-8.035-18.006-11.525
		c-7.698-4.331-15.688-8.014-18.344-17.65c-2.071-7.514-4.87-14.826-6.919-22.344c-1.908-6.999-8.308-13.8-15.397-14.569
		c-17.571-1.907-35.195-2.326-51.94,4.33c-5,1.987-11.25,5.604-12.965,10.016c-2.938,7.553-5.735,16.059-2.435,24.703
		c1.498,3.925,2.637,7.987,4.204,12.804c-3.136-1.143-5.864-1.457-7.672-2.915c-7.257-5.853-15.856-6.778-24.625-8.184
		c-19.277-3.09-38.653-3.683-58.084-3.711c-7.741-0.012-9.926,2.322-10.042,10.17c-0.064,4.327,0.097,8.66,0.267,12.985
		c0.135,3.433-0.023,6.067-4.708,6.4c-2.131,0.152-4.396,2.268-6.098,3.988c-12.102,12.23-19.667,27.568-28.102,42.231
		c-4.269,7.421-1.523,18.622,4.853,22.569c13.829,8.562,27.942,16.662,41.897,25.021c5.158,3.09,9.866,2.083,14.321-1.297
		c7.863-5.965,15.633-12.055,23.486-18.034c4.054-3.087,8.203-6.048,12.435-9.158c1.456,1.363,2.618,2.295,3.597,3.392
		c12.61,14.121,25.054,28.395,37.839,42.354c6.919,7.556,13.211,16.955,21.898,21.355c17.085,8.655,35.591,14.545,53.632,21.246
		c4.119,1.529,8.63-1.236,10.581-5.372C283.998,337.734,285.826,333.517,288.123,328.412z"/>
	<path fill-rule="evenodd" clip-rule="evenodd" d="M288.123,328.412c-2.297,5.104-4.125,9.322-6.086,13.479
		c-1.951,4.136-6.462,6.901-10.581,5.372c-18.042-6.701-36.547-12.591-53.632-21.246c-8.687-4.4-14.979-13.8-21.898-21.355
		c-12.786-13.96-25.229-28.233-37.839-42.354c-0.979-1.097-2.142-2.028-3.597-3.392c-4.232,3.11-8.381,6.071-12.435,9.158
		c-7.853,5.979-15.623,12.069-23.486,18.034c-4.456,3.38-9.163,4.387-14.321,1.297c-13.955-8.359-28.069-16.46-41.897-25.021
		c-6.375-3.947-9.121-15.148-4.853-22.569c8.435-14.663,16-30.001,28.102-42.231c1.703-1.721,3.967-3.836,6.098-3.988
		c4.685-0.333,4.843-2.968,4.708-6.4c-0.17-4.325-0.331-8.658-0.267-12.985c0.115-7.848,2.301-10.182,10.042-10.17
		c19.431,0.028,38.807,0.621,58.084,3.711c8.769,1.405,17.368,2.331,24.625,8.184c1.808,1.458,4.536,1.772,7.672,2.915
		c-1.567-4.816-2.706-8.879-4.204-12.804c-3.3-8.645-0.503-17.15,2.435-24.703c1.716-4.411,7.966-8.028,12.965-10.016
		c16.745-6.656,34.369-6.237,51.94-4.33c7.089,0.77,13.489,7.57,15.397,14.569c2.049,7.518,4.848,14.83,6.919,22.344
		c2.656,9.637,10.646,13.319,18.344,17.65c6.204,3.49,12.161,7.453,18.006,11.525c1.646,1.146,2.567,3.376,3.723,5.171
		c8.205,12.736,12.504,27.114,17.318,41.276c0.318,0.936,0.745,1.84,1.199,2.72c0.125,0.242,0.531,0.341,1.505,0.92
		c0.98-3.487,1.703-6.842,2.863-10.038c3.151-8.682,4.906-18.437,10.12-25.673c7.942-11.022,20.532-12.834,33.23-9.041
		c17.725,5.294,34.69,12.606,50.641,22.021c7.538,4.448,14.716,9.524,21.918,14.517c3.707,2.568,6.673,2.942,10.51-0.208
		c4.979-4.088,10.464-7.658,16.089-10.815c2.15-1.207,5.846-1.757,7.883-0.724c11.533,5.845,23.651,10.932,32.474,20.994
		c11.522,13.142,12.462,13.028,2.201,28.403c-4.953,7.422-5.054,8.31,2.831,12.854c6.158,3.549,12.414,6.928,19.567,10.905
		c2.294-4.26,4.835-8.277,6.705-12.585c5.101-11.747,12.922-14.649,24.429-8.898c8.02,4.008,16.136,7.822,24.194,11.753
		c1.488,0.727,3.184,1.321,4.312,2.448c6.596,6.594,14.435,7.797,23.052,5.495c13.112-3.503,26.175-7.191,39.281-10.715
		c6.254-1.681,12.489-3.806,18.868-4.515c4.32-0.48,8.876,1.153,14.058,1.955c0.432-5.417,5.363-6.27,10.48-7.239
		c5.722-1.084,11.423-2.407,17-4.073c4.354-1.301,8.392-3.718,12.772-4.861c6.586-1.72,12.921-1.703,18.821,3.149
		c2.91,2.394,4.537,4.576,4.378,8.227c-0.731,16.791-1.29,33.592-2.212,50.372c-0.387,7.05-8.449,12.097-16.328,10.348
		c-2.68-0.595-4.271-0.002-6.626,1.346c-3.618,2.07-7.959,3.204-12.131,3.868c-2.774,0.441-3.378,1.354-3.851,3.904
		c-0.648,3.499-1.592,7.209-3.473,10.149c-2.353,3.677-2.557,6.127,1.163,8.784c1.203,0.859,2.183,2.612,2.456,4.104
		c2.454,13.4,4.655,26.848,7.096,40.251c0.861,4.728,2.124,9.387,3.295,14.054c2.342,9.332-0.395,14.245-9.316,17.111
		c-12.504,4.016-24.899,8.374-37.445,12.249c-17.744,5.479-35.521,10.878-53.416,15.838c-6.73,1.865-13.766,2.321-20.396-1.41
		c-4.945-2.784-8.005-6.949-9.646-12.188c-1.99-6.35-3.919-12.729-5.533-19.182c-1.849-7.39-2.407-14.75,1.531-21.857
		c1.248-2.251,1.716-4.935,2.646-7.741c-2.645-0.786-4.79-1.423-7.5-2.229c-1.373,2.588-2.795,5.328-4.271,8.037
		c-4.927,9.041-10.359,12.15-20.383,10.416c-6.311-1.092-12.512-3.112-18.576-5.243c-6.413-2.253-6.977-2.284-9.59,4.007
		c-1.85,4.453-3.559,8.965-5.388,13.426c-3.061,7.463-6.277,9.092-14.07,6.95c-14.242-3.914-28.472-7.879-42.682-11.907
		c-2.694-0.764-5.385-1.703-7.889-2.941c-8.524-4.217-10.022-7.525-7.829-16.808c1.527-6.467,3.167-12.907,4.716-19.369
		c1.442-6.013,0.021-7.937-5.092-10.909c-6.031-3.507-12.908-2.635-19.021-4.696c-10.194-3.438-20.088-7.854-29.903-12.309
		c-16.82-7.636-33.469-15.65-50.233-23.411c-1.919-0.889-4.196-1.856-6.177-1.632c-17.322,1.97-34.625,4.116-51.907,6.422
		c-3.958,0.527-7.174-0.219-10.099-2.893C298.185,337.285,293.567,333.257,288.123,328.412z M616.954,299.857
		c-7.481-4.463-13.59-8.443-20.008-11.839c-6.148-3.253-12.606-5.927-18.953-8.799c-3.243-1.468-5.307-0.108-6.854,2.856
		c-2.386,4.573-4.923,9.068-7.455,13.563c-4.017,7.127-9.201,8.495-16.2,4.151c-7.908-4.907-15.676-10.043-23.617-14.895
		c-6.381-3.898-7.578-8.306-3.747-14.937c1.828-3.165,3.515-6.412,5.331-9.584c2.265-3.956,1.166-6.741-2.557-9.174
		c-6.821-4.458-13.278-9.495-20.233-13.722c-12.451-7.567-7.974-9.076-21.953,0.722c-10.946,7.672-14.028,16.803-10.449,29.176
		c1.046,3.617,0.982,7.555,1.428,11.346c-1.644-0.662-2.324-1.551-2.53-2.539c-1.326-6.35-2.878-12.677-3.73-19.095
		c-1.331-10.02-6.704-17.064-14.822-22.579c-18.396-12.499-38.112-22.371-58.894-30.213c-13.588-5.127-23.682-1.784-30.008,11.202
		c-4.572,9.386-7.833,19.402-11.939,29.026c-3.163,7.413-5.651,14.687-0.863,22.356c0.282,0.453,0.036,1.235,0.036,2.145
		c-0.673-0.424-1.25-0.575-1.42-0.925c-4.344-8.973-8.523-18.029-12.995-26.938c-3.557-7.086-6.848-14.423-11.34-20.896
		c-9.286-13.383-24.124-20.134-37.118-28.938c-9.361-6.343-17.177-13.096-20.599-24.511c-2.806-9.359-7.025-18.316-10.967-27.299
		c-0.842-1.918-3.157-4.49-4.847-4.53c-14.408-0.346-28.444,2.254-42.241,6.331c-3.652,1.079-5.43,3.474-6.302,6.985
		c-1.79,7.209-0.875,14.154,3.512,19.983c6.564,8.722,13.39,17.32,20.84,25.284c9.176,9.808,19.246,18.773,28.657,28.37
		c5.214,5.316,9.874,11.178,14.783,16.793c2.727-1.979,3.792-2.813,5.002-3.248c0.749-0.27,1.717,0.07,2.587,0.136
		c-0.142,0.876,0,1.968-0.474,2.591c-2.685,3.531-13.019,5.442-16.503,2.809c-23.316-17.631-46.483-35.459-69.86-53.009
		c-5.648-4.241-11.506-9.925-17.952-11.061c-19.796-3.49-39.931-5.05-59.919-7.479c-3.632-0.441-5.387,1.014-5.664,4.429
		c-1.131,13.931,0.616,26.809,12.158,36.679c19.49,16.667,37.242,35.008,53.71,54.725c11.691,13.997,24.654,26.94,37.224,40.189
		c4.546,4.793,8.896,10.486,14.559,13.362c13.169,6.688,27.077,11.923,40.694,17.726c3.04,1.296,5.631,0.663,7.292-2.272
		c2.863-5.06,5.757-10.118,8.228-15.37c0.53-1.127-0.185-3.594-1.181-4.571c-18.995-18.629-38.123-37.123-57.201-55.668
		c-0.857-0.833-1.504-1.881-2.775-3.499c7.018-0.201,11.582,3.204,15.902,6.56c5.501,4.274,10.547,9.132,15.793,13.734
		c17.472,15.329,35.069,30.517,52.357,46.051c7.095,6.375,13.603,13.329,24.306,12.369c9.601-0.861,19.218-1.569,28.795-2.64
		c3.833-0.428,5.134-3.699,3.648-7.213c-2.108-4.984-3.997-10.061-5.979-15.098c0.591-0.256,1.183-0.513,1.774-0.769
		c0.703,1.21,1.514,2.37,2.089,3.638c2.133,4.695,4.095,9.47,6.295,14.133c2.868,6.08,7.343,10.669,13.499,13.453
		c10.766,4.868,21.655,9.473,32.335,14.52c9.571,4.523,19.859,5.075,30.069,6.109c2.236,0.227,4.896,0.023,6.816-1.001
		c9.934-5.296,17.345-13.165,20.102-24.183c1.714-6.849,1.648-14.137,2.475-21.217c0.299-2.557,0.87-5.08,1.317-7.619
		c0.542,0.059,1.084,0.117,1.626,0.176c1.61,14.024,2.934,28.092,4.979,42.053c0.783,5.342-0.23,9.49-3.193,13.847
		c-4.215,6.196-3.887,6.733,2.081,11.111c0.804,0.589,1.521,1.351,2.404,1.768c4.837,2.284,5.859,6.615,5.774,11.264
		c-0.061,3.3-0.687,6.612-1.305,9.873c-1.022,5.392-2.585,10.706-3.199,16.134c-0.229,2.019,1.02,5.568,2.527,6.203
		c12.519,5.271,25.146,10.335,37.97,14.808c6.683,2.331,11.432-0.435,13.711-7.182c2.709-8.023,5.045-16.182,7.296-24.35
		c1.4-5.08,2.698-5.592,7.657-3.285c7.223,3.36,14.481,6.739,21.984,9.373c6.986,2.452,11.658,1.313,13.355-3.605
		c3.112-9.022,5.121-18.423,7.653-27.648c0.521-1.897,1.322-3.719,1.994-5.575c1.442,1.589,3.379,2.951,4.234,4.811
		c2.487,5.409,4.502,11.034,6.777,16.543c2.63,6.368,3.138,6.53,9.146,3.302c0.879-0.472,1.673-1.102,2.556-1.564
		c15.201-7.98,30.345-16.075,45.682-23.787c2.579-1.297,6-0.919,9.032-1.315c0.114,0.524,0.229,1.049,0.343,1.573
		c-0.712,0.586-1.345,1.331-2.148,1.733c-11.448,5.726-23,11.252-34.334,17.193c-3.124,1.638-6.434,3.973-8.239,6.871
		c-4.815,7.729-9.381,15.714-12.958,24.063c-1.48,3.454-0.851,8.242,0.005,12.164c1.197,5.484,3.141,10.886,5.404,16.042
		c6.021,13.716,1.885,16.475,19.423,9.994c0.154-0.057,0.332-0.052,0.488-0.105c20.819-7.139,42.097-12.941,62.133-22.345
		c12.058-5.659,19.946-14.398,22.125-27.496c2.198-13.219-0.313-26.223-3.773-38.975c-0.224-0.823-3.556-1.108-5.418-1.036
		c-0.769,0.029-1.594,1.592-2.191,2.579c-4.554,7.529-8.985,15.134-13.659,22.587c-0.664,1.059-2.429,1.429-3.683,2.117
		c-0.367-1.416-0.849-2.816-1.043-4.256c-0.075-0.556,0.493-1.204,0.782-1.804c5.534-11.473,12.657-21.883,21.198-31.309
		c4.377-4.83,5.763-10.398,4.587-16.667c-1.771-9.441-3.428-18.912-5.542-28.277c-1.571-6.958-3.646-13.814-5.779-20.628
		c-1.264-4.039-4.078-6.514-8.654-5.813c-6.548,1.004-13.098,2.027-19.605,3.262c-23.658,4.488-47.132,9.805-69.992,17.432
		c-5.761,1.922-11.285,4.858-16.505,8.012c-6.11,3.69-7.629,9.806-4.989,16.551c1.092,2.79,2.183,5.581,3.273,8.372
		c-0.536,0.24-1.072,0.481-1.609,0.723c-2.492-4.961-5.334-9.783-7.38-14.922c-2.162-5.43-0.535-9.813,4.673-12.529
		c6.604-3.444,13.55-6.231,20.29-9.426C610.952,303.446,613.36,301.889,616.954,299.857z M100.295,206.041
		c-4.659,2.682-10.384,4.548-14.006,8.395c-5.547,5.891-4.996,10.092,0.981,15.417c8.046,7.17,16.56,13.821,24.973,20.57
		c4.665,3.742,9.409,7.417,14.384,10.719c1.446,0.96,4.627,1.449,5.622,0.573c4.204-3.702,8.006-7.893,11.706-12.122
		c2.075-2.373,1.482-4.967-0.725-7.107c-2.503-2.428-5.018-4.848-7.617-7.171c-9.757-8.725-19.514-17.452-29.372-26.063
		C104.804,207.996,102.814,207.372,100.295,206.041z M65.991,249.33c2.285,2.41,3.761,4.528,5.736,5.954
		c9.529,6.877,19.369,13.333,28.75,20.4c7.08,5.334,9.529,5.411,15.268-1.447c0.851-1.017,1.56-2.15,2.389-3.188
		c2.782-3.477,2.522-6.099-1.813-8.132c-1.904-0.893-3.43-2.574-5.169-3.84c-9.645-7.019-19.191-14.182-29.053-20.883
		c-1.919-1.304-6.262-2.008-7.442-0.869C71.344,240.521,69.099,244.824,65.991,249.33z M738.86,316.23
		c0.09-0.007,0.18-0.014,0.27-0.021c-0.73-9.949-1.424-19.901-2.201-29.847c-0.909-11.642-0.091-12.765-13.615-9.224
		c-8.239,2.157-10.936,7.992-8.415,16.172c0.488,1.586,0.8,3.226,1.217,4.835c2.46,9.495,4.633,19.081,7.591,28.419
		c0.773,2.442,3.849,5.601,6.124,5.824c4.892,0.483,9.441-5.126,9.419-10.178C739.24,320.218,738.997,318.225,738.86,316.23z
		 M760.324,298.526c-0.122-0.008-0.243-0.017-0.364-0.025c0-3.653,0.124-7.312-0.034-10.958c-0.165-3.807-0.379-7.64-1.021-11.385
		c-0.299-1.743-1.273-4.258-2.6-4.792c-8.044-3.241-15.716,2.552-15.115,11.182c0.495,7.112,1.146,14.215,1.75,21.319
		c0.562,6.607,0.938,13.243,1.899,19.793c0.213,1.447,2.457,3.567,3.908,3.69c5.783,0.488,9.553-2.692,10.172-8.494
		C759.641,312.106,759.877,305.306,760.324,298.526z"/>
	<path fill-rule="evenodd" clip-rule="evenodd" fill="#FFFFFF" d="M616.954,299.857c-3.594,2.031-6.002,3.589-8.572,4.807
		c-6.74,3.194-13.686,5.981-20.29,9.426c-5.208,2.717-6.835,7.1-4.673,12.529c2.046,5.139,4.888,9.961,7.38,14.922
		c0.537-0.241,1.073-0.482,1.609-0.723c-1.091-2.791-2.182-5.582-3.273-8.372c-2.64-6.745-1.121-12.86,4.989-16.551
		c5.22-3.153,10.744-6.09,16.505-8.012c22.86-7.627,46.334-12.943,69.992-17.432c6.508-1.234,13.058-2.258,19.605-3.262
		c4.576-0.701,7.391,1.773,8.654,5.813c2.133,6.813,4.208,13.67,5.779,20.628c2.114,9.365,3.771,18.836,5.542,28.277
		c1.176,6.269-0.21,11.837-4.587,16.667c-8.541,9.426-15.664,19.836-21.198,31.309c-0.289,0.6-0.857,1.248-0.782,1.804
		c0.194,1.439,0.676,2.84,1.043,4.256c1.254-0.688,3.019-1.059,3.683-2.117c4.674-7.453,9.105-15.058,13.659-22.587
		c0.598-0.987,1.423-2.55,2.191-2.579c1.862-0.072,5.194,0.213,5.418,1.036c3.46,12.752,5.972,25.756,3.773,38.975
		c-2.179,13.098-10.067,21.837-22.125,27.496c-20.036,9.403-41.313,15.206-62.133,22.345c-0.156,0.054-0.334,0.049-0.488,0.105
		c-17.538,6.48-13.401,3.722-19.423-9.994c-2.264-5.156-4.207-10.558-5.404-16.042c-0.855-3.922-1.485-8.71-0.005-12.164
		c3.577-8.349,8.143-16.334,12.958-24.063c1.806-2.898,5.115-5.233,8.239-6.871c11.334-5.941,22.886-11.468,34.334-17.193
		c0.804-0.402,1.437-1.147,2.148-1.733c-0.114-0.524-0.229-1.049-0.343-1.573c-3.032,0.396-6.453,0.019-9.032,1.315
		c-15.337,7.712-30.48,15.807-45.682,23.787c-0.883,0.463-1.677,1.093-2.556,1.564c-6.009,3.229-6.517,3.066-9.146-3.302
		c-2.275-5.509-4.29-11.134-6.777-16.543c-0.855-1.859-2.792-3.222-4.234-4.811c-0.672,1.856-1.473,3.678-1.994,5.575
		c-2.532,9.226-4.541,18.626-7.653,27.648c-1.697,4.919-6.369,6.058-13.355,3.605c-7.503-2.634-14.762-6.013-21.984-9.373
		c-4.959-2.307-6.257-1.795-7.657,3.285c-2.251,8.168-4.587,16.326-7.296,24.35c-2.279,6.747-7.028,9.513-13.711,7.182
		c-12.823-4.473-25.451-9.536-37.97-14.808c-1.508-0.635-2.756-4.185-2.527-6.203c0.614-5.428,2.177-10.742,3.199-16.134
		c0.618-3.261,1.244-6.573,1.305-9.873c0.085-4.648-0.938-8.979-5.774-11.264c-0.883-0.417-1.601-1.179-2.404-1.768
		c-5.968-4.378-6.296-4.915-2.081-11.111c2.963-4.356,3.977-8.505,3.193-13.847c-2.046-13.961-3.369-28.028-4.979-42.053
		c-0.542-0.059-1.084-0.117-1.626-0.176c-0.447,2.539-1.019,5.063-1.317,7.619c-0.826,7.08-0.761,14.368-2.475,21.217
		c-2.757,11.018-10.168,18.887-20.102,24.183c-1.921,1.024-4.58,1.228-6.816,1.001c-10.21-1.034-20.498-1.586-30.069-6.109
		c-10.68-5.047-21.569-9.651-32.335-14.52c-6.156-2.784-10.631-7.373-13.499-13.453c-2.2-4.663-4.162-9.438-6.295-14.133
		c-0.576-1.268-1.386-2.428-2.089-3.638c-0.591,0.256-1.183,0.513-1.774,0.769c1.982,5.037,3.871,10.113,5.979,15.098
		c1.486,3.514,0.186,6.785-3.648,7.213c-9.577,1.07-19.195,1.778-28.795,2.64c-10.703,0.96-17.211-5.994-24.306-12.369
		c-17.288-15.534-34.885-30.722-52.357-46.051c-5.246-4.603-10.292-9.46-15.793-13.734c-4.32-3.355-8.884-6.761-15.902-6.56
		c1.271,1.618,1.918,2.666,2.775,3.499c19.078,18.545,38.206,37.039,57.201,55.668c0.997,0.978,1.711,3.444,1.181,4.571
		c-2.47,5.252-5.364,10.311-8.228,15.37c-1.661,2.936-4.252,3.568-7.292,2.272c-13.617-5.803-27.525-11.037-40.694-17.726
		c-5.662-2.876-10.012-8.569-14.559-13.362c-12.569-13.249-25.533-26.192-37.224-40.189c-16.469-19.717-34.221-38.058-53.71-54.725
		c-11.542-9.87-13.289-22.748-12.158-36.679c0.277-3.415,2.032-4.87,5.664-4.429c19.989,2.429,40.123,3.988,59.919,7.479
		c6.446,1.136,12.304,6.819,17.952,11.061c23.377,17.55,46.543,35.378,69.86,53.009c3.484,2.634,13.819,0.723,16.503-2.809
		c0.474-0.623,0.332-1.715,0.474-2.591c-0.87-0.065-1.838-0.405-2.587-0.136c-1.209,0.435-2.275,1.27-5.002,3.248
		c-4.91-5.615-9.569-11.477-14.783-16.793c-9.412-9.597-19.481-18.563-28.657-28.37c-7.45-7.964-14.275-16.563-20.84-25.284
		c-4.387-5.829-5.302-12.774-3.512-19.983c0.872-3.512,2.65-5.906,6.302-6.985c13.797-4.077,27.833-6.677,42.241-6.331
		c1.69,0.04,4.005,2.612,4.847,4.53c3.941,8.982,8.161,17.939,10.967,27.299c3.421,11.415,11.238,18.168,20.599,24.511
		c12.994,8.805,27.832,15.556,37.118,28.938c4.492,6.474,7.783,13.811,11.34,20.896c4.471,8.909,8.65,17.966,12.995,26.938
		c0.169,0.35,0.747,0.501,1.42,0.925c0-0.909,0.246-1.691-0.036-2.145c-4.789-7.67-2.3-14.943,0.863-22.356
		c4.106-9.624,7.367-19.641,11.939-29.026c6.327-12.986,16.42-16.329,30.008-11.202c20.781,7.842,40.497,17.714,58.894,30.213
		c8.118,5.515,13.491,12.56,14.822,22.579c0.853,6.418,2.404,12.745,3.73,19.095c0.206,0.988,0.887,1.877,2.53,2.539
		c-0.445-3.791-0.382-7.729-1.428-11.346c-3.579-12.373-0.497-21.504,10.449-29.176c13.979-9.798,9.502-8.289,21.953-0.722
		c6.955,4.227,13.412,9.264,20.233,13.722c3.723,2.433,4.821,5.218,2.557,9.174c-1.816,3.172-3.503,6.419-5.331,9.584
		c-3.831,6.631-2.634,11.038,3.747,14.937c7.941,4.852,15.709,9.987,23.617,14.895c6.999,4.344,12.184,2.976,16.2-4.151
		c2.532-4.495,5.069-8.99,7.455-13.563c1.547-2.965,3.61-4.324,6.854-2.856c6.347,2.872,12.805,5.546,18.953,8.799
		C603.364,291.414,609.473,295.395,616.954,299.857z M668.142,323.942c0.67-1.393,2.42-3.363,1.999-4.591
		c-0.489-1.426-2.819-2.99-4.457-3.117c-6.411-0.496-12.881-0.762-19.294-0.438c-2.292,0.116-4.567,2.026-6.634,3.436
		c-0.291,0.199,0.724,3.244,1.018,3.225c2.635-0.175,5.465-0.25,7.813-1.302c4.095-1.834,4.936-2.11,8.591,0.432
		c-1.992,0.415-3.657,0.763-5.323,1.109c-0.206,0.482-0.413,0.966-0.62,1.448c1.866,1.17,3.731,2.341,5.79,3.632
		c-3.952,1.924-6.88-0.229-10.248-1.477c-2.094-0.774-4.973,0.574-7.5,0.97c1.618,1.728,3.098,4.761,4.88,4.95
		c6.873,0.734,13.855,0.832,20.771,0.544c1.877-0.078,4.375-1.994,5.236-3.735C670.723,327.894,668.844,325.552,668.142,323.942z
		 M436.804,310.512c-2.864-2.536-5.109-5.333-8.011-6.948c-11.079-6.169-19.759-13.875-20.344-27.682
		c-0.041-0.97-0.304-2.069-0.845-2.843c-0.644-0.921-1.698-1.554-3.049-2.721c0.23,9.95,5.319,28.239,10.195,37.504
		C419.795,317.405,427.58,318.727,436.804,310.512z M699.054,315.612c-9.313-1.064-26.011,5.932-26.624,11.697
		c4.806,0,9.537,0,14.269,0c-5.083,2.428-5.083,2.428-4.669,5.731c7.57,0,15.155,0,22.564,0c2.676-6.017-4.714-2.184-4.941-5.257
		c1.657-2.103,6.822,1.145,6.495-4.351c-2.412-0.205-4.348-0.37-6.581-0.56C699.393,320.412,699.232,318.134,699.054,315.612z
		 M619.545,321.571c0,2.591,0,4.791,0,6.93c-5.563,0.862-5.563,0.862-4.802,4.414c7.578,0,15.121,0,22.523,0
		c1.656-5.65-3.703-2.833-5.475-5.284c0-3.716,0-7.963,0-12.601c-5.896,0.829-11.325,1.491-16.69,2.496
		c-0.584,0.109-0.797,2.201-1.268,3.638C616.107,321.326,617.58,321.431,619.545,321.571z"/>
	<path fill-rule="evenodd" clip-rule="evenodd" fill="#FFFFFF" d="M100.295,206.041c2.519,1.331,4.508,1.955,5.946,3.211
		c9.858,8.61,19.615,17.338,29.372,26.063c2.599,2.323,5.114,4.743,7.617,7.171c2.207,2.141,2.799,4.734,0.725,7.107
		c-3.7,4.229-7.502,8.42-11.706,12.122c-0.994,0.876-4.175,0.387-5.622-0.573c-4.976-3.302-9.72-6.977-14.384-10.719
		c-8.413-6.749-16.926-13.4-24.973-20.57c-5.977-5.325-6.528-9.526-0.981-15.417C89.911,210.589,95.636,208.723,100.295,206.041z"/>
	<path fill-rule="evenodd" clip-rule="evenodd" fill="#FFFFFF" d="M65.991,249.33c3.108-4.506,5.353-8.809,8.667-12.004
		c1.18-1.139,5.522-0.435,7.442,0.869c9.861,6.701,19.408,13.864,29.053,20.883c1.739,1.266,3.265,2.947,5.169,3.84
		c4.335,2.033,4.595,4.655,1.813,8.132c-0.83,1.037-1.539,2.171-2.389,3.188c-5.739,6.858-8.188,6.781-15.268,1.447
		c-9.381-7.067-19.221-13.523-28.75-20.4C69.752,253.858,68.276,251.74,65.991,249.33z"/>
	<path fill-rule="evenodd" clip-rule="evenodd" fill="#FFFFFF" d="M738.86,316.23c0.137,1.994,0.38,3.987,0.389,5.981
		c0.022,5.052-4.527,10.661-9.419,10.178c-2.275-0.224-5.351-3.382-6.124-5.824c-2.958-9.338-5.131-18.924-7.591-28.419
		c-0.417-1.609-0.729-3.249-1.217-4.835c-2.521-8.18,0.176-14.015,8.415-16.172c13.524-3.541,12.706-2.418,13.615,9.224
		c0.777,9.945,1.471,19.897,2.201,29.847C739.04,316.217,738.95,316.224,738.86,316.23z"/>
	<path fill-rule="evenodd" clip-rule="evenodd" fill="#FFFFFF" d="M760.324,298.526c-0.447,6.779-0.684,13.58-1.404,20.33
		c-0.619,5.802-4.389,8.982-10.172,8.494c-1.451-0.123-3.695-2.243-3.908-3.69c-0.961-6.55-1.338-13.186-1.899-19.793
		c-0.604-7.104-1.255-14.207-1.75-21.319c-0.601-8.63,7.071-14.423,15.115-11.182c1.326,0.534,2.301,3.049,2.6,4.792
		c0.642,3.745,0.855,7.578,1.021,11.385c0.158,3.646,0.034,7.305,0.034,10.958C760.081,298.51,760.202,298.519,760.324,298.526z"/>
	<path fill-rule="evenodd" clip-rule="evenodd" d="M668.142,323.942c0.702,1.609,2.581,3.951,2.021,5.086
		c-0.861,1.741-3.359,3.657-5.236,3.735c-6.915,0.288-13.897,0.19-20.771-0.544c-1.782-0.189-3.262-3.223-4.88-4.95
		c2.527-0.396,5.406-1.744,7.5-0.97c3.368,1.247,6.296,3.4,10.248,1.477c-2.059-1.291-3.924-2.462-5.79-3.632
		c0.207-0.482,0.414-0.966,0.62-1.448c1.666-0.347,3.331-0.694,5.323-1.109c-3.655-2.542-4.496-2.266-8.591-0.432
		c-2.348,1.052-5.178,1.127-7.813,1.302c-0.294,0.02-1.309-3.025-1.018-3.225c2.066-1.409,4.342-3.319,6.634-3.436
		c6.413-0.324,12.883-0.059,19.294,0.438c1.638,0.127,3.968,1.691,4.457,3.117C670.562,320.579,668.812,322.55,668.142,323.942z"/>
	<path fill-rule="evenodd" clip-rule="evenodd" d="M436.804,310.512c-9.224,8.215-17.009,6.894-22.053-2.689
		c-4.876-9.265-9.965-27.554-10.195-37.504c1.351,1.167,2.405,1.8,3.049,2.721c0.541,0.773,0.804,1.873,0.845,2.843
		c0.585,13.807,9.265,21.513,20.344,27.682C431.694,305.179,433.939,307.976,436.804,310.512z"/>
	<path fill-rule="evenodd" clip-rule="evenodd" d="M699.054,315.612c0.179,2.521,0.339,4.8,0.513,7.262
		c2.233,0.189,4.169,0.354,6.581,0.56c0.327,5.495-4.838,2.248-6.495,4.351c0.228,3.073,7.617-0.76,4.941,5.257
		c-7.409,0-14.994,0-22.564,0c-0.414-3.304-0.414-3.304,4.669-5.731c-4.731,0-9.463,0-14.269,0
		C673.043,321.544,689.741,314.548,699.054,315.612z"/>
	<path fill-rule="evenodd" clip-rule="evenodd" d="M619.545,321.571c-1.965-0.141-3.438-0.245-5.711-0.407
		c0.471-1.437,0.684-3.528,1.268-3.638c5.365-1.005,10.795-1.667,16.69-2.496c0,4.638,0,8.885,0,12.601
		c1.771,2.451,7.131-0.366,5.475,5.284c-7.402,0-14.945,0-22.523,0c-0.762-3.552-0.762-3.552,4.802-4.414
		C619.545,326.362,619.545,324.162,619.545,321.571z"/>
</g>
</svg>
